Coordinates
version=1
nRows=19
nColumns=36
inDegrees=yes

Units are S.I. units (second, meters, Newtons, ...)
If the header above contains a line with 'inDegrees', this indicates whether rotational values are in degrees (yes) or radians (no).

endheader
time	pelvis_tilt	pelvis_list	pelvis_rotation	pelvis_tx	pelvis_ty	pelvis_tz	hip_flexion_r	hip_adduction_r	hip_rotation_r	knee_angle_r	knee_angle_r_beta	ankle_angle_r	subtalar_angle_r	mtp_angle_r	hip_flexion_l	hip_adduction_l	hip_rotation_l	knee_angle_l	knee_angle_l_beta	ankle_angle_l	subtalar_angle_l	mtp_angle_l	lumbar_extension	lumbar_bending	lumbar_rotation	arm_flex_r	arm_add_r	arm_rot_r	elbow_flex_r	pro_sup_r	arm_flex_l	arm_add_l	arm_rot_l	elbow_flex_l	pro_sup_l
      3.13333330	      9.76813152	     -5.45544592	      9.11892447	     -0.13951116	      0.88582847	     -0.03946544	     32.15486281	     -0.45029550	     -5.62032947	     14.80895445	      0.25846501	     -4.59650692	     -1.03371660	     -7.49999987	     -1.98512956	      0.28078911	     -0.19762487	     20.06871129	      0.35026509	     10.35599301	     -7.04715658	     -7.49999987	     -7.21952072	      2.95539149	     -5.13592538	     32.19546942	      9.29621241	     60.46973520	    122.21957421	     81.58010033	     44.47751588	      6.14583555	     64.91753660	    129.17752918	     61.66393783
      3.15000000	      9.78758549	     -5.50269927	      9.20040525	     -0.13927540	      0.88498669	     -0.03936237	     32.21367768	     -0.42908892	     -5.66096330	     14.85660952	      0.25929675	     -4.58131949	     -0.87239738	     -7.49999987	     -1.78574392	      0.17597150	     -0.28340688	     20.39745401	      0.35600273	     10.07262230	     -7.19360725	     -7.49999987	     -7.28028814	      2.90597441	     -5.15297767	     32.26324769	      9.28708426	     60.42744584	    122.17320267	     80.87463675	     44.35228915	      6.05056051	     65.03135130	    129.47894349	     61.62157075
      3.16666670	      9.89662470	     -5.47636500	      9.19706382	     -0.14002670	      0.88453473	     -0.03928080	     32.25402104	     -0.44779835	     -5.82399458	     14.72373892	      0.25697772	     -4.48898576	     -0.70561971	     -7.49999987	     -1.76838429	      0.17947725	     -0.48989174	     20.65437267	      0.36048681	     10.09165435	     -7.30044086	     -7.49999987	     -7.55583746	      2.77975631	     -5.00713010	     32.36827570	      9.25125028	     60.37140523	    122.24707843	     80.01246151	     44.35254419	      5.98973445	     65.18796924	    129.66876701	     61.62294404
      3.18333330	      9.94351266	     -5.57437895	      9.24168130	     -0.14131666	      0.88511973	     -0.03901397	     32.44175103	     -0.46514887	     -5.91700471	     14.60114776	      0.25483810	     -4.73771132	     -0.66138290	     -7.49999987	     -1.63142372	      0.07684476	     -0.27109558	     20.83883231	      0.36370624	     10.45301417	     -7.16474570	     -7.49999987	     -7.68830750	      2.79588640	     -4.93318751	     32.34125030	      9.22969293	     60.28068456	    122.42993643	     79.42496716	     44.23283045	      5.97138364	     65.25503709	    129.85086515	     61.62917450
      3.20000000	     10.09237219	     -5.67495519	      9.23041182	     -0.14075039	      0.88363484	     -0.03894673	     32.54886336	     -0.41373443	     -5.95115929	     14.70871359	      0.25671548	     -4.74117556	     -0.78101559	     -7.49999987	     -1.63971571	     -0.06577875	     -0.01734731	     21.12869520	      0.36876530	     10.77137319	     -7.17772900	     -7.49999987	     -7.93863862	      2.80622537	     -4.80961518	     32.44252046	      9.26776600	     60.33400352	    122.43774682	     78.98116143	     44.20868193	      5.91724383	     65.30575367	    129.87978313	     61.64049185
      3.21666670	     10.00205513	     -5.81435204	      9.15575163	     -0.14053270	      0.88399652	     -0.03889278	     32.88372392	     -0.36423537	     -6.05353294	     14.80520054	      0.25839950	     -4.87470349	     -0.83414252	     -7.49999987	     -1.47606209	     -0.17059446	      0.19797599	     21.24676561	      0.37082602	     11.01098805	     -6.80454515	     -7.49999987	     -7.89350248	      2.86825302	     -4.70387371	     32.28110073	      9.35079550	     60.33015208	    122.55648776	     77.70995166	     44.04517857	      5.93787560	     65.21995485	    130.09956781	     61.62347586
      3.23333330	      9.56976477	     -5.85134630	      9.03531641	     -0.14002148	      0.88216495	     -0.03734029	     33.60964766	     -0.42377829	     -6.05573147	     14.93282993	      0.26062705	     -4.81033991	     -0.75607927	     -7.49999987	     -0.92781696	     -0.14310899	      0.63970889	     21.52084126	      0.37560954	     11.60189318	     -6.88692916	     -7.49999987	     -7.33556084	      2.74104488	     -4.73171057	     31.93396826	      9.53794882	     60.25569215	    122.34567338	     76.53916332	     43.69817394	      5.76592932	     65.05416598	    130.21466298	     61.53320208
      3.25000000	     10.09643363	     -5.88153614	      9.02429210	     -0.14029944	      0.88319376	     -0.03691477	     33.22891978	     -0.31549868	     -5.87068088	     15.03336267	      0.26238168	     -4.85398553	     -1.31446372	     -7.49999987	     -1.45006140	     -0.40625650	      0.28300031	     21.59874962	      0.37696930	     11.78607789	     -6.42974017	     -7.49999987	     -8.23386727	      2.62719440	     -4.36300512	     32.21237939	      9.49812679	     60.12416906	    122.65760277	     81.64607316	     44.29588538	      6.14482706	     65.22999634	    130.06843211	     62.72355400
      3.26666670	     10.17613062	     -5.84811165	      9.06089595	     -0.14178008	      0.88511194	     -0.03740517	     33.28448612	     -0.44265253	     -6.06893137	     15.11684477	      0.26383871	     -4.96380570	     -1.20560296	     -7.49999987	     -1.54239062	     -0.42262516	      0.23784836	     21.43625980	      0.37413331	     11.70381000	     -6.54574297	     -7.49999987	     -8.39903563	      2.46419782	     -4.27966417	     32.31506472	      9.57961129	     60.33860246	    122.76936587	     79.77353868	     44.17655818	      6.13333112	     65.14569725	    130.18485410	     62.54257902
      3.28333330	     10.04913910	     -5.81307199	      9.10836752	     -0.14034555	      0.88346328	     -0.03674727	     33.55023570	     -0.57031550	     -6.15387543	     15.19199450	      0.26515032	     -5.06111526	     -1.18878802	     -7.49999987	     -1.40988161	     -0.41637041	      0.08201722	     21.40337632	      0.37355939	     11.80505105	     -6.84788418	     -7.49999987	     -8.22541213	      2.27557414	     -4.38479278	     32.22351950	      9.73476120	     60.29078414	    122.81251501	     79.35685063	     43.97210526	      6.02248986	     65.00257484	    130.36555072	     62.45628411
      3.30000000	     10.24343763	     -5.78861839	      9.06342794	     -0.14083932	      0.88505074	     -0.03642256	     33.31841342	     -0.57429744	     -6.19521611	     15.03018345	      0.26232619	     -5.19758391	     -1.03418249	     -7.49999987	     -1.74160199	     -0.48754062	     -0.30622937	     21.23633415	      0.37064395	     11.53738936	     -6.83274689	     -7.49999987	     -8.50533260	      2.05602872	     -4.33504960	     32.44265682	      9.71246212	     60.51885861	    123.00448516	     79.05225185	     44.13182601	      6.19934035	     64.86152129	    130.20817376	     62.49489721
      3.31666670	     10.20977940	     -5.75958721	      9.03438747	     -0.14150028	      0.88711703	     -0.03580003	     33.30441942	     -0.55617751	     -6.26854282	     14.82013144	      0.25866009	     -5.41638853	     -0.78888446	     -7.49999987	     -1.79365901	     -0.49844997	     -0.56050782	     21.07550903	      0.36783702	     10.96117375	     -6.83335652	     -7.49999987	     -8.48084992	      1.84289455	     -4.37248261	     32.46241411	      9.77481971	     60.49820487	    123.00990734	     81.77472511	     43.98351216	      6.21435641	     64.74441852	    130.19399179	     62.97646200
      3.33333330	     10.25723653	     -5.72180939	      9.09419434	     -0.14059647	      0.88580595	     -0.03607881	     33.29888709	     -0.64028676	     -6.49853766	     14.75023025	      0.25744008	     -5.53646398	     -0.67284460	     -7.49999987	     -1.93583433	     -0.46518699	     -0.65867844	     20.93788212	      0.36543498	     10.74675905	     -6.83349013	     -7.49999987	     -8.49053012	      1.71250389	     -4.45737001	     32.49334434	      9.77382392	     60.73724833	    123.05438792	     80.60042430	     43.90161326	      6.15954105	     64.57200795	    130.30267487	     62.80454442
      3.35000000	     10.32634406	     -5.71668634	      9.11647283	     -0.14006922	      0.88607391	     -0.03554376	     33.24166084	     -0.62905990	     -6.50754952	     14.73658282	      0.25720189	     -5.61067886	     -0.65638398	     -7.49999987	     -2.06832071	     -0.50444693	     -0.62936933	     20.95162782	      0.36567489	     10.74805055	     -6.73076860	     -7.49999987	     -8.51567897	      1.63593255	     -4.44665110	     32.50477294	      9.76017249	     60.88155631	    123.02603937	     79.71743996	     43.74580598	      6.11901111	     64.49030859	    130.34430708	     62.65622300
      3.36666670	     10.35044064	     -5.71514598	      9.11510828	     -0.13998553	      0.88267477	     -0.03524377	     33.36906526	     -0.65838052	     -6.11980373	     15.10895243	      0.26370097	     -5.42848741	     -0.78779025	     -7.49999987	     -2.22836652	     -0.49549072	     -0.56592017	     20.77453864	      0.36258410	     10.61310046	     -6.81878118	     -7.49999987	     -8.40316525	      1.64714661	     -4.50438595	     32.47855542	      9.73088088	     61.01886894	    122.95589826	     79.25898605	     43.85480468	      6.08307479	     64.21604555	    130.29464191	     62.58672983
      3.38333330	     10.22536643	     -5.76708871	      9.08965788	     -0.14025795	      0.88269275	     -0.03482983	     33.70851169	     -0.64157249	     -5.84441017	     15.51379138	      0.27076674	     -5.28932379	     -0.81031048	     -7.49999987	     -2.23248208	     -0.51616869	     -0.39424497	     20.52316144	      0.35819674	     10.34920814	     -6.90062453	     -7.49999987	     -8.13094315	      1.70470527	     -4.58173508	     32.42072349	      9.68700268	     61.27597211	    123.05674723	     78.28699267	     43.87538631	      5.98851615	     63.94836875	    130.42065655	     62.43176532
      3.40000000	     10.16522416	     -5.81629614	      9.14967865	     -0.13928150	      0.88364375	     -0.03413095	     33.76602525	     -0.58520121	     -5.54341898	     15.65255980	      0.27318870	     -5.12543467	     -0.75791964	     -7.49999987	     -2.26986580	     -0.60495400	     -0.41385800	     20.33531504	      0.35491820	      9.64415199	     -7.08086738	     -7.49999987	     -7.87331643	      1.72014511	     -4.74861588	     32.23540203	      9.67524071	     61.40210908	    123.10400657	     77.57898594	     43.88040432	      5.89985793	     63.72834294	    130.44178374	     62.26740111
      3.41666670	     10.11761610	     -5.82782864	      9.16445198	     -0.13960078	      0.88400017	     -0.03374019	     33.78196874	     -0.54279632	     -5.34954152	     15.67010216	      0.27349488	     -5.06191606	     -0.62826857	     -7.49999987	     -2.23823546	     -0.65077271	     -0.54276778	     20.30627311	      0.35441132	      9.25381710	     -7.06038649	     -7.49999987	     -7.71488340	      1.65513182	     -4.78474013	     32.13071139	      9.63256194	     61.52914056	    123.12850475	     76.68128248	     43.99000621	      5.87699055	     63.64911679	    130.39679580	     62.13438282
      3.43333330	     10.08845935	     -5.84169000	      9.14352647	     -0.13936425	      0.88415546	     -0.03384576	     33.81316496	     -0.52573551	     -5.21362510	     15.79020913	      0.27559114	     -5.03297738	     -0.66441280	     -7.49999987	     -2.19753384	     -0.69213413	     -0.62263374	     20.30146225	      0.35432736	      9.22191155	     -6.94807871	     -7.49999987	     -7.57291341	      1.66051761	     -4.82012482	     32.04045963	      9.62495269	     61.63433497	    123.19425300	     76.36800539	     44.06707395	      5.79094869	     63.52204987	    130.43166024	     62.07123880
